<svg width="30" height="30" viewBox="0 0 30 30" fill="none" xmlns="http://www.w3.org/2000/svg">
<g clip-path="url(#clip0_1_37)">
<path d="M23.1934 20.3449C15.0825 20.3449 9.89506 15.2624 9.89506 7.13644C9.89506 5.27736 10.2999 3.01349 10.8396 1.76911C10.9745 1.42429 11.0045 1.1994 11.0045 1.06446C11.0045 0.67466 10.7047 0.224884 10.105 0.224884C9.94004 0.224884 9.58021 0.25487 9.23538 0.389802C3.71815 2.5937 0 8.4108 0 14.4978C0 23.0584 6.94153 30 15.5023 30C21.964 30 27.3763 26.087 29.2804 21.2294C29.4154 20.8697 29.4453 20.4948 29.4453 20.3598C29.4453 19.7901 28.9955 19.4302 28.5758 19.4302C28.3808 19.4302 28.2159 19.4752 27.9311 19.5652C26.7616 19.9401 25.0375 20.3449 23.1934 20.3449Z" fill="white"/>
</g>
<defs>
<clipPath id="clip0_1_37">
<rect width="30" height="30" fill="white"/>
</clipPath>
</defs>
</svg>
