<svg width="30" height="30" viewBox="0 0 30 30" fill="none" xmlns="http://www.w3.org/2000/svg">
<g clip-path="url(#clip0_1_47)">
<path d="M14.7328 29.9854C22.7926 29.9854 29.4656 23.1799 29.4656 14.9927C29.4656 6.7908 22.8069 0 14.7472 0C13.9817 0 13.6062 0.470359 13.6062 1.23469V6.92309C13.6062 7.56984 14.0395 8.06959 14.6606 8.06959C15.2961 8.06959 15.7295 7.56984 15.7295 6.92309V1.20529L14.7183 2.49879C21.5648 2.49879 26.9957 8.05489 26.9957 14.9927C26.9957 21.9305 21.5503 27.4866 14.7328 27.4866C7.91526 27.4866 2.44102 21.9305 2.45547 14.9927C2.46991 11.8913 3.5532 9.08381 5.37313 6.92309C5.80645 6.34984 5.83534 5.65901 5.3587 5.14455C4.88204 4.63009 4.08762 4.67419 3.5532 5.32094C1.35773 7.93731 0 11.3327 0 14.9927C0 23.1799 6.68753 29.9854 14.7328 29.9854Z" fill="#002C7B"/>
<path d="M14.7328 17.3592C16.0327 17.3592 17.0727 16.3009 17.0727 14.9927C17.0727 14.1843 16.6827 13.4934 16.076 13.0525L8.83966 7.84912C8.13192 7.33468 7.39527 8.0843 7.88636 8.83394L12.6962 16.1539C13.1584 16.8741 13.8806 17.3592 14.7328 17.3592Z" fill="#002C7B"/>
</g>
<defs>
<clipPath id="clip0_1_47">
<rect width="30" height="30" fill="white"/>
</clipPath>
</defs>
</svg>
